<svg id="Layer_1" data-name="Layer 1" xmlns="http://www.w3.org/2000/svg" viewBox="0 0 1920 1080"><defs><style>.cls-1{fill:#333;}.cls-2,.cls-3,.cls-4{fill:none;stroke:#fff;stroke-linecap:round;stroke-linejoin:round;}.cls-2{stroke-width:5px;}.cls-3{stroke-width:3px;}.cls-5,.cls-6{fill:#fff;}.cls-6{font-size:21px;font-family:OpenSans-Regular, Open Sans;}</style></defs><title>WernerZiegler_UI_Elements_v1</title><rect id="fondo_nomás" data-name="fondo nomás" class="cls-1" width="1920" height="1080"/><rect id="CHARACTER_AVATAR" data-name="CHARACTER AVATAR" class="cls-2" x="32.04" y="54.79" width="188.2" height="180.1"/><polygon id="HEALTH_BAR" data-name="HEALTH BAR" class="cls-3" points="528.9 54.79 245.44 54.79 245.53 82.95 521.06 82.95 783.83 82.95 804.43 54.79 528.9 54.79"/><polygon id="TRHOWABLE" class="cls-3" points="559.77 137.38 527 234.89 433.49 234.89 466.83 137.38 559.77 137.38"/><g id="WEAPON_BULLET_COUNT" data-name="WEAPON + BULLET COUNT"><polygon class="cls-3" points="353.07 137.38 245.53 137.38 245.53 234.89 341.41 234.89 415.61 234.89 448.95 137.38 353.07 137.38"/><line class="cls-4" x1="415.43" y1="203.65" x2="254.94" y2="203.65"/><path class="cls-5" d="M297,225.37V211.6H266.65l-10,4.12a3,3,0,0,0,0,5.4l10.88,4.25Z"/><rect class="cls-5" x="303.3" y="211.6" width="9.78" height="13.77"/><text class="cls-6" transform="translate(326.02 227.56)">60/120</text></g><g id="HEALTH_ITEMS" data-name="HEALTH ITEMS"><polygon class="cls-2" points="272.3 94.66 254.4 94.66 245.44 110.16 254.4 125.67 272.3 125.67 281.26 110.16 272.3 94.66"/><polygon class="cls-2" points="317.14 94.66 299.23 94.66 290.28 110.16 299.23 125.67 317.14 125.67 326.09 110.16 317.14 94.66"/><polygon class="cls-2" points="362.05 94.66 344.14 94.66 335.19 110.16 344.14 125.67 362.05 125.67 371 110.16 362.05 94.66"/><polygon class="cls-2" points="406.88 94.66 388.98 94.66 380.02 110.16 388.98 125.67 406.88 125.67 415.83 110.16 406.88 94.66"/><polygon class="cls-2" points="452.33 94.66 434.43 94.66 425.48 110.16 434.43 125.67 452.33 125.67 461.29 110.16 452.33 94.66"/></g></svg>